<svg fill="none" height="882" viewBox="0 0 882 882" width="882" xmlns="http://www.w3.org/2000/svg"><path d="m219.963 661.037c-121.7463 121.746-318.6839 122.198-439.873 1.009l220.44141-220.441z" fill="#09264f"/><g clip-rule="evenodd" fill-rule="evenodd"><path d="m219.963 661.037c-60.594-60.595-60.368-159.064.505-219.937 60.594 60.594 60.368 159.064-.505 219.937z" fill="#c0e7e4"/><path d="m330.184 550.816c-60.594-60.594-60.368-159.064.505-219.937 60.594 60.595 60.368 159.064-.505 219.937z" fill="#c0e7e4"/><path d="m110.248 551.321c-60.5947-60.594-60.3688-159.064.504-219.937 60.595 60.595 60.369 159.064-.504 219.937z" fill="#c0e7e4"/><path d="m220.468 441.1c-60.594-60.594-60.368-159.063.505-219.936 60.594 60.594 60.368 159.063-.505 219.936z" fill="#c0e7e4"/><path d="m-439.342 442.615c121.189 121.189 318.127 120.737 439.873626-1.01-121.188626-121.189-318.126626-120.737-439.873626 1.01z" fill="#2a75a5"/></g><path d="m-5.69691 331.842c-57.26059.131-103.57209-46.181-103.44109-103.441l.268-116.639 116.63842-.268c57.26048-.131 103.57258 46.181 103.44158 103.441l-.268 116.639z" fill="#7dd4d7"/><path d="m-53.8224 166.81c-30.4366 30.437-30.5496 79.671-.2524 109.968 30.2973 30.298 79.5317 30.185 109.9683-.252s30.5496-79.671.2524-109.968c-30.2972-30.298-79.5317-30.185-109.9683.252z" fill="#103c78"/><path d="m331.194 110.943c-60.874 60.873-61.1 159.342-.505 219.937 60.594 60.594 159.063 60.368 219.936-.505 60.874-60.873 61.1-159.342.505-219.937-60.594-60.5941-159.063-60.3681-219.936.505z" fill="#c3f5f1"/><path d="m551.634-109.499c-60.873 60.8736-61.099 159.3425-.504 219.937 60.594 60.594 159.063 60.368 219.936-.505 60.874-60.873 61.1-159.3419.505-219.936-60.594-60.595-159.063-60.369-219.937.504z" fill="#7dd4d7"/><path d="m550.939 110.629c.279-121.6779 99.145-220.544 220.823-220.823-.279 121.6779-99.145 220.544-220.823 220.823z" fill="#09264f"/><path clip-rule="evenodd" d="m1.54129 1.732c121.18871 121.189 318.12671 120.737 439.87271-1.009512-121.189-121.189488-318.126-120.737488-439.87271 1.009512z" fill="#2a75a5" fill-rule="evenodd"/><path d="m368.27-72.4214 73.144 73.143995 73.48-73.480395-73.143-73.1442z" fill="#09264f"/></svg>