<svg fill="none" height="78" viewBox="0 0 209 78" width="209" xmlns="http://www.w3.org/2000/svg"><g fill="#103c78"><path d="m206.863 45.0643c.602 0 1.099.1967 1.492.5899.394.3933.59.9023.59 1.5269v21.4451c0 .6014-.196 1.1104-.59 1.5268-.393.3933-.89.5899-1.492.5899-.601 0-1.099-.1966-1.492-.5899-.393-.4164-.59-.9254-.59-1.5268v-1.7004l.764.3123c0 .3008-.162.6709-.486 1.1105-.324.4164-.764.8328-1.319 1.2492s-1.214.775-1.978 1.0757c-.74.2776-1.55.4164-2.429.4164-1.596 0-3.042-.4048-4.337-1.2145-1.296-.8328-2.325-1.9664-3.089-3.4007-.74-1.4574-1.11-3.1231-1.11-4.9969 0-1.897.37-3.5626 1.11-4.9969.764-1.4574 1.782-2.591 3.054-3.4007 1.272-.8328 2.683-1.2492 4.233-1.2492.995 0 1.909.1504 2.742.4511s1.55.6824 2.151 1.1451c.625.4627 1.099.9369 1.423 1.4227.347.4627.521.856.521 1.1799l-1.25.4511v-9.2998c0-.6015.197-1.0989.59-1.4922.393-.4164.891-.6246 1.492-.6246zm-7.009 22.2085c1.018 0 1.908-.2544 2.672-.7634.763-.5089 1.353-1.2029 1.769-2.082.44-.8791.66-1.8623.66-2.9496 0-1.1104-.22-2.1052-.66-2.9843-.416-.8791-1.006-1.5731-1.769-2.082-.764-.509-1.654-.7634-2.672-.7634-.995 0-1.874.2544-2.637.7634-.764.5089-1.365 1.2029-1.805 2.082-.416.8791-.625 1.8739-.625 2.9843 0 1.0873.209 2.0705.625 2.9496.44.8791 1.041 1.5731 1.805 2.082.763.509 1.642.7634 2.637.7634z"/><path d="m180.917 51.8309c1.712 0 3.008.3586 3.887 1.0757.902.7172 1.515 1.6772 1.839 2.8802.347 1.1798.52 2.4984.52 3.9559v8.8834c0 .6015-.196 1.1104-.59 1.5268-.393.3933-.89.5899-1.492.5899-.601 0-1.099-.1966-1.492-.5899-.393-.4164-.59-.9253-.59-1.5268v-8.8834c0-.7634-.104-1.4459-.312-2.0474-.185-.6246-.532-1.122-1.041-1.4921s-1.238-.5552-2.186-.5552c-.926 0-1.712.1851-2.36.5552-.624.3701-1.11.8675-1.457 1.4921-.324.6015-.486 1.284-.486 2.0474v8.8834c0 .6015-.197 1.1104-.59 1.5268-.393.3933-.891.5899-1.492.5899-.602 0-1.099-.1966-1.492-.5899-.394-.4164-.59-.9253-.59-1.5268v-14.3314c0-.6015.196-1.0989.59-1.4922.393-.4164.89-.6246 1.492-.6246.601 0 1.099.2082 1.492.6246.393.3933.59.8907.59 1.4922v1.4921l-.521-.1041c.209-.3933.509-.8097.903-1.2492.393-.4627.856-.8907 1.388-1.284.532-.3932 1.133-.7056 1.804-.9369.671-.2545 1.4-.3817 2.186-.3817z"/><path d="m159.269 71.0898c-1.966 0-3.678-.4048-5.135-1.2145-1.435-.8328-2.545-1.9548-3.332-3.366-.763-1.4111-1.145-3.0074-1.145-4.7887 0-2.082.417-3.8518 1.25-5.3092.856-1.4806 1.966-2.6141 3.331-3.4007 1.365-.7865 2.811-1.1798 4.337-1.1798 1.18 0 2.291.2429 3.332.7287 1.064.4858 2.001 1.1567 2.81 2.0127.81.8328 1.446 1.8044 1.909 2.9148.486 1.1105.729 2.2903.729 3.5395-.023.5552-.243 1.0063-.66 1.3533-.416.347-.902.5206-1.457.5206h-13.256l-1.041-3.4701h12.735l-.763.694v-.9369c-.046-.6709-.289-1.2724-.729-1.8045-.416-.532-.948-.9485-1.596-1.2492-.625-.3239-1.295-.4858-2.013-.4858-.694 0-1.341.0925-1.943.2776-.601.1851-1.122.4974-1.561.9369-.44.4396-.787 1.0295-1.041 1.7698-.255.7402-.382 1.6772-.382 2.8107 0 1.2492.254 2.3134.763 3.1925.532.8559 1.203 1.5153 2.013 1.9779.833.4396 1.712.6593 2.637.6593.856 0 1.539-.0694 2.048-.2082s.913-.3007 1.214-.4858c.324-.2082.613-.3817.868-.5205.416-.2082.809-.3123 1.179-.3123.509 0 .926.1735 1.25.5205.347.347.52.7519.52 1.2146 0 .6246-.324 1.1913-.971 1.7003-.602.5089-1.446.96-2.534 1.3533-1.087.3702-2.209.5552-3.366.5552z"/><path d="m146.245 68.6261c0 .6015-.196 1.1104-.59 1.5268-.393.3933-.89.5899-1.492.5899-.601 0-1.099-.1966-1.492-.5899-.393-.4164-.59-.9253-.59-1.5268v-14.3314c0-.6015.197-1.0989.59-1.4922.393-.4164.891-.6246 1.492-.6246.602 0 1.099.2082 1.492.6246.394.3933.59.8907.59 1.4922zm-2.116-18.7037c-.787 0-1.342-.1273-1.666-.3817-.324-.2545-.486-.7056-.486-1.3534v-.6593c0-.6709.174-1.122.521-1.3533.37-.2545.925-.3817 1.665-.3817.81 0 1.377.1272 1.701.3817.323.2544.485.7056.485 1.3533v.6593c0 .6709-.173 1.1336-.52 1.3881-.347.2313-.914.347-1.7.347z"/><path d="m129.36 70.7428c-.602 0-1.099-.1966-1.492-.5899-.394-.4164-.59-.9253-.59-1.5268v-14.3314c0-.6015.196-1.0989.59-1.4922.393-.4164.89-.6246 1.492-.6246.601 0 1.099.2082 1.492.6246.393.3933.59.8907.59 1.4922v3.2618l-.243-2.3249c.254-.5552.578-1.041.972-1.4575.416-.4395.879-.7981 1.388-1.0757.509-.3007 1.052-.5205 1.631-.6593.578-.1388 1.156-.2082 1.735-.2082.694 0 1.272.1966 1.735.5899.485.3933.728.856.728 1.388 0 .7635-.196 1.3187-.59 1.6657-.393.3239-.821.4858-1.283.4858-.44 0-.845-.081-1.215-.2429-.347-.162-.752-.2429-1.214-.2429-.417 0-.845.1041-1.284.3123-.417.1851-.81.4858-1.18.9022-.347.4164-.636.9369-.868 1.5615-.208.6015-.312 1.3187-.312 2.1515v8.2241c0 .6015-.197 1.1104-.59 1.5268-.393.3933-.891.5899-1.492.5899z"/><path d="m110.631 70.7428c-.648 0-1.18-.1966-1.596-.5899-.394-.4164-.59-.9253-.59-1.5268v-20.0571c0-.6014.196-1.0988.59-1.4921.416-.4164.925-.6246 1.527-.6246h11.277c.602 0 1.099.1966 1.492.5899.417.3701.625.8559.625 1.4574 0 .509-.208.9601-.625 1.3534-.393.3932-.89.5899-1.492.5899h-9.369l.312-.4164v6.9748l-.242-.4511h7.738c.601 0 1.099.1966 1.492.5899.416.3702.625.856.625 1.4575 0 .5089-.209.96-.625 1.3533-.393.3933-.891.5899-1.492.5899h-7.808l.312-.3123v8.3976c0 .6015-.219 1.1104-.659 1.5268-.416.3933-.914.5899-1.492.5899z"/><path d="m136.375 31.2376c-.602 0-1.099-.1967-1.493-.5899-.393-.4164-.59-.9254-.59-1.5269v-14.3314c0-.6015.197-1.0988.59-1.4921.394-.4164.891-.6246 1.493-.6246.601 0 1.098.2082 1.492.6246.393.3933.59.8906.59 1.4921v3.2619l-.243-2.325c.254-.5552.578-1.041.971-1.4574.417-.4395.879-.7981 1.388-1.0757.509-.3008 1.053-.5205 1.631-.6593.579-.1388 1.157-.2082 1.735-.2082.694 0 1.273.1966 1.735.5899.486.3932.729.8559.729 1.388 0 .7634-.197 1.3186-.59 1.6656-.393.3239-.821.4858-1.284.4858-.439 0-.844-.0809-1.214-.2429-.347-.1619-.752-.2429-1.215-.2429-.416 0-.844.1041-1.284.3123-.416.1851-.809.4859-1.18.9023-.347.4164-.636.9369-.867 1.5615-.208.6015-.312 1.3186-.312 2.1514v8.2241c0 .6015-.197 1.1105-.59 1.5269-.394.3932-.891.5899-1.492.5899z"/><path d="m130.931 32.2092c.486 0 .937.1966 1.353.5899.417.4164.625.8906.625 1.4227s-.243 1.0295-.729 1.4922c-.463.4858-1.064.9137-1.804 1.2839-.741.3701-1.516.6593-2.325.8675-.787.2082-1.504.3123-2.152.3123-1.434 0-2.579-.1388-3.435-.4164-.856-.2545-1.562-.5552-2.117-.9022-.555-.3239-1.076-.6246-1.561-.9022-.486-.2545-1.076-.3817-1.77-.3817-.44 0-.798.0694-1.076.2082-.254.1619-.544.3123-.867.4511-.301.1619-.729.2429-1.284.2429-.579 0-1.064-.2198-1.458-.6593-.393-.4396-.59-.9138-.59-1.4228 0-.9022.405-1.5037 1.215-1.8044l7.183-2.672 3.123.7635-6.732 2.4984 1.978-1.1451c.81 0 1.515.1156 2.117.347.624.2545 1.214.5321 1.769.8328.556.3007 1.122.5668 1.701.7981.601.2545 1.284.3817 2.047.3817.625 0 1.145-.1041 1.562-.3123.439-.2082.821-.4395 1.145-.694.393-.3007.74-.5783 1.041-.8328.324-.2313.671-.347 1.041-.347zm-.139-13.1169c0 1.735-.289 3.3544-.867 4.8581-.579 1.5037-1.4 2.8339-2.464 3.9906-1.041 1.1335-2.29 2.0242-3.748 2.6719-1.434.6478-3.007.9717-4.719.9717s-3.285-.3239-4.72-.9717c-1.434-.6477-2.683-1.5384-3.747-2.6719-1.041-1.1567-1.851-2.4869-2.429-3.9906-.579-1.5037-.868-3.1231-.868-4.8581 0-1.7351.289-3.3544.868-4.8581.578-1.5037 1.388-2.8224 2.429-3.9559 1.064-1.1567 2.313-2.05892 3.747-2.70667 1.435-.64775 3.008-.97162 4.72-.97162s3.285.32387 4.719.97162c1.458.64775 2.707 1.54997 3.748 2.70667 1.064 1.1335 1.885 2.4522 2.464 3.9559.578 1.5037.867 3.123.867 4.8581zm-4.511 0c0-1.55-.312-2.9496-.937-4.1988-.625-1.2724-1.481-2.2787-2.568-3.019s-2.348-1.1104-3.782-1.1104c-1.435 0-2.695.3701-3.783 1.1104-1.087.7403-1.943 1.7351-2.567 2.9843-.602 1.2492-.903 2.6604-.903 4.2335 0 1.55.301 2.9611.903 4.2335.624 1.2492 1.48 2.244 2.567 2.9842 1.088.7403 2.348 1.1105 3.783 1.1105 1.434 0 2.695-.3702 3.782-1.1105 1.087-.7402 1.943-1.735 2.568-2.9842.625-1.2724.937-2.6835.937-4.2335z"/></g><path d="m8.8486 31.8457c4.0346-4.0609 10.5758-4.0609 14.6104 0l8.2183 8.272-8.2183 8.2719c-4.0346 4.0609-10.5758 4.0609-14.6104 0l-8.218351-8.2719z" fill="#7dd4d7"/><path d="m23.8772 40.1176c0-4.3078-3.4579-7.8-7.7235-7.8s-7.72352 3.4922-7.72352 7.8c0 4.3079 3.45792 7.8 7.72352 7.8s7.7235-3.4921 7.7235-7.8z" fill="#103c78"/><path d="m69.2486 31.8457c4.0346-4.0609 10.5758-4.0609 14.6104 0l8.2183 8.272-8.2183 8.2719c-4.0346 4.0609-10.5758 4.0609-14.6104 0l-8.2183-8.2719z" fill="#7dd4d7"/><path d="m84.6773 40.1176c0-4.3078-3.458-7.8-7.7235-7.8-4.2656 0-7.7236 3.4922-7.7236 7.8 0 4.3079 3.458 7.8 7.7236 7.8 4.2655 0 7.7235-3.4921 7.7235-7.8z" fill="#103c78"/><path clip-rule="evenodd" d="m58.4302 39.4c0 6.6729-5.4095 12.0823-12.0824 12.0823s-12.0823-5.4094-12.0823-12.0823h6.0411c0 3.3364 2.7048 6.0412 6.0412 6.0412 3.3365 0 6.0412-2.7048 6.0412-6.0412z" fill="#103c78" fill-rule="evenodd"/><path d="m25.2723 3h-11.6421c-1.7673 0-3.2 1.43269-3.2 3.2v11.84" stroke="#2a75a5" stroke-linecap="round" stroke-width="6"/><path d="m67.5881 75h11.6421c1.7673 0 3.2-1.4327 3.2-3.2v-11.84" stroke="#2a75a5" stroke-linecap="round" stroke-width="6"/><path d="m82.1143 18.36v-11.83998c0-1.76731-1.4327-3.2-3.2-3.2h-11.6421" stroke="#2a75a5" stroke-linecap="round" stroke-width="6"/><path d="m10.7461 59.96v11.84c0 1.7673 1.4327 3.2 3.2 3.2h11.6421" stroke="#2a75a5" stroke-linecap="round" stroke-width="6"/></svg>