<svg fill="none" height="217" viewBox="0 0 218 217" width="218" xmlns="http://www.w3.org/2000/svg"><path d="m72.8333 0h18.0834c9.9873 0 18.0833 8.09618 18.0833 18.0833v18.0834c0 9.9871-8.096 18.0833-18.0833 18.0833h-18.0834c-9.9871 0-18.0833-8.0962-18.0833-18.0833v-18.0834c0-9.98712 8.0962-18.0833 18.0833-18.0833z" fill="#2975a5"/><path d="m72.8333 54.25h18.0834c9.9873 0 18.0833 8.0962 18.0833 18.0833v18.0834c0 9.9873-8.096 18.0833-18.0833 18.0833h-18.0834c-9.9871 0-18.0833-8.096-18.0833-18.0833v-18.0834c0-9.9871 8.0962-18.0833 18.0833-18.0833z" fill="#2975a5"/><path d="m18.5833 0h18.0834c9.9871 0 18.0833 8.09618 18.0833 18.0833v18.0834c0 9.9871-8.0962 18.0833-18.0833 18.0833h-18.0834c-9.98712 0-18.0833-8.0962-18.0833-18.0833v-18.0834c0-9.98712 8.09618-18.0833 18.0833-18.0833z" fill="#2975a5"/><path d="m18.5833 54.25h18.0834c9.9871 0 18.0833 8.0962 18.0833 18.0833v18.0834c0 9.9873-8.0962 18.0833-18.0833 18.0833h-18.0834c-9.98712 0-18.0833-8.096-18.0833-18.0833v-18.0834c0-9.9871 8.09618-18.0833 18.0833-18.0833z" fill="#2975a5"/><path d="m81.875 40.6875c-7.4904 0-13.5625-6.0721-13.5625-13.5625s6.0721-13.5625 13.5625-13.5625 13.5625 6.0721 13.5625 13.5625-6.0721 13.5625-13.5625 13.5625z" fill="#c0e7e4"/><path d="m81.875 94.9375c-7.4904 0-13.5625-6.0721-13.5625-13.5625s6.0721-13.5625 13.5625-13.5625 13.5625 6.0721 13.5625 13.5625-6.0721 13.5625-13.5625 13.5625z" fill="#c0e7e4"/><path d="m27.625 40.6875c-7.4904 0-13.5625-6.0721-13.5625-13.5625s6.0721-13.5625 13.5625-13.5625 13.5625 6.0721 13.5625 13.5625-6.0721 13.5625-13.5625 13.5625z" fill="#c0e7e4"/><path d="m27.625 94.9375c-7.4904 0-13.5625-6.0721-13.5625-13.5625s6.0721-13.5625 13.5625-13.5625 13.5625 6.0721 13.5625 13.5625-6.0721 13.5625-13.5625 13.5625z" fill="#c0e7e4"/><path d="m.5 108.5c29.9614 0 54.25 24.289 54.25 54.25h-54.25z" fill="#103c78"/><path d="m.5 162.75c29.9614 0 54.25 24.289 54.25 54.25h-54.25z" fill="#7dd4d7"/><path d="m54.75 108.5c29.9614 0 54.25 24.289 54.25 54.25h-54.25z" fill="#7dd4d7"/><path d="m54.75 162.75c29.9614 0 54.25 24.289 54.25 54.25h-54.25z" fill="#103c78"/><g fill="#09264f"><path d="m145.167 0h-36.167v36.1667h36.167z"/><path d="m181.333 36.1667h-36.166v36.1666h36.166z"/><path d="m145.167 72.3333h-36.167v36.1667h36.167z"/><path d="m217.5 72.3333h-36.167v36.1667h36.167z"/><path d="m217.5 0h-36.167v36.1667h36.167z"/></g><path d="m109 108.5h108.5v36.167h-108.5z" fill="#103c78"/><path d="m109 180.833h108.5v36.167h-108.5z" fill="#103c78"/></svg>