<svg width="218" height="217" viewBox="0 0 218 217" fill="none" xmlns="http://www.w3.org/2000/svg">
<path d="M72.8333 0H90.9167C100.904 0 109 8.09618 109 18.0833V36.1667C109 46.1538 100.904 54.25 90.9167 54.25H72.8333C62.8462 54.25 54.75 46.1538 54.75 36.1667V18.0833C54.75 8.09618 62.8462 0 72.8333 0Z" fill="#2975A5"/>
<path d="M72.8333 54.25H90.9167C100.904 54.25 109 62.3462 109 72.3333V90.4167C109 100.404 100.904 108.5 90.9167 108.5H72.8333C62.8462 108.5 54.75 100.404 54.75 90.4167V72.3333C54.75 62.3462 62.8462 54.25 72.8333 54.25Z" fill="#2975A5"/>
<path d="M18.5833 0H36.6667C46.6538 0 54.75 8.09618 54.75 18.0833V36.1667C54.75 46.1538 46.6538 54.25 36.6667 54.25H18.5833C8.59618 54.25 0.5 46.1538 0.5 36.1667V18.0833C0.5 8.09618 8.59618 0 18.5833 0Z" fill="#2975A5"/>
<path d="M18.5833 54.25H36.6667C46.6538 54.25 54.75 62.3462 54.75 72.3333V90.4167C54.75 100.404 46.6538 108.5 36.6667 108.5H18.5833C8.59618 108.5 0.5 100.404 0.5 90.4167V72.3333C0.5 62.3462 8.59618 54.25 18.5833 54.25Z" fill="#2975A5"/>
<path d="M81.875 40.6875C74.3846 40.6875 68.3125 34.6154 68.3125 27.125C68.3125 19.6346 74.3846 13.5625 81.875 13.5625C89.3654 13.5625 95.4375 19.6346 95.4375 27.125C95.4375 34.6154 89.3654 40.6875 81.875 40.6875Z" fill="#C0E7E4"/>
<path d="M81.875 94.9375C74.3846 94.9375 68.3125 88.8654 68.3125 81.375C68.3125 73.8846 74.3846 67.8125 81.875 67.8125C89.3654 67.8125 95.4375 73.8846 95.4375 81.375C95.4375 88.8654 89.3654 94.9375 81.875 94.9375Z" fill="#C0E7E4"/>
<path d="M27.625 40.6875C20.1346 40.6875 14.0625 34.6154 14.0625 27.125C14.0625 19.6346 20.1346 13.5625 27.625 13.5625C35.1154 13.5625 41.1875 19.6346 41.1875 27.125C41.1875 34.6154 35.1154 40.6875 27.625 40.6875Z" fill="#C0E7E4"/>
<path d="M27.625 94.9375C20.1346 94.9375 14.0625 88.8654 14.0625 81.375C14.0625 73.8846 20.1346 67.8125 27.625 67.8125C35.1154 67.8125 41.1875 73.8846 41.1875 81.375C41.1875 88.8654 35.1154 94.9375 27.625 94.9375Z" fill="#C0E7E4"/>
<path d="M0.5 108.5C30.4614 108.5 54.75 132.789 54.75 162.75H0.5V108.5Z" fill="#103C78"/>
<path d="M0.5 162.75C30.4614 162.75 54.75 187.039 54.75 217H0.5V162.75Z" fill="#7DD4D7"/>
<path d="M54.75 108.5C84.7114 108.5 109 132.789 109 162.75H54.75V108.5Z" fill="#7DD4D7"/>
<path d="M54.75 162.75C84.7114 162.75 109 187.039 109 217H54.75V162.75Z" fill="#103C78"/>
<path d="M145.167 0H109V36.1667H145.167V0Z" fill="#09264F"/>
<path d="M181.333 36.1667H145.167V72.3333H181.333V36.1667Z" fill="#09264F"/>
<path d="M145.167 72.3333H109V108.5H145.167V72.3333Z" fill="#09264F"/>
<path d="M217.5 72.3333H181.333V108.5H217.5V72.3333Z" fill="#09264F"/>
<path d="M217.5 0H181.333V36.1667H217.5V0Z" fill="#09264F"/>
<path d="M109 108.5H217.5V144.667H109V108.5Z" fill="#103C78"/>
<path d="M109 180.833H217.5V217H109V180.833Z" fill="#103C78"/>
</svg>
