<svg fill="none" height="84" viewBox="0 0 285 84" width="285" xmlns="http://www.w3.org/2000/svg" xmlns:xlink="http://www.w3.org/1999/xlink"><linearGradient id="a" gradientUnits="userSpaceOnUse" x1="45.8309" x2="4.1141" y1="18.2837" y2="29.4122"><stop offset="0" stop-color="#00a0ff"/><stop offset=".00657" stop-color="#00a1ff"/><stop offset=".2601" stop-color="#00beff"/><stop offset=".5122" stop-color="#00d2ff"/><stop offset=".7604" stop-color="#00dfff"/><stop offset="1" stop-color="#00e3ff"/></linearGradient><linearGradient id="b" gradientUnits="userSpaceOnUse" x1="71.1351" x2="20.2621" y1="41.9999" y2="41.9999"><stop offset="0" stop-color="#ffe000"/><stop offset=".4087" stop-color="#ffbd00"/><stop offset=".7754" stop-color="#ffa500"/><stop offset="1" stop-color="#ff9c00"/></linearGradient><linearGradient id="c" gradientUnits="userSpaceOnUse" x1="52.1962" x2="18.7586" y1="46.8244" y2="103.168"><stop offset="0" stop-color="#ff3a44"/><stop offset="1" stop-color="#c31162"/></linearGradient><linearGradient id="d" gradientUnits="userSpaceOnUse" x1="15.3366" x2="30.2544" y1=".375187" y2="25.5392"><stop offset="0" stop-color="#32a071"/><stop offset=".0685" stop-color="#2da771"/><stop offset=".4762" stop-color="#15cf74"/><stop offset=".8009" stop-color="#06e775"/><stop offset="1" stop-color="#00f076"/></linearGradient><path clip-rule="evenodd" d="m274.441 84h-263.8816c-5.81971 0-10.5594-4.7342-10.5594-10.5v-63c0-5.78678 4.73969-10.5 10.5594-10.5h263.8816c5.814 0 10.559 4.71322 10.559 10.5v63c0 5.7658-4.745 10.5-10.559 10.5z" fill="#000" fill-rule="evenodd"/><path clip-rule="evenodd" d="m274.441 1.68105c4.881 0 8.876 3.96434 8.876 8.81895v63c0 4.8546-3.969 8.819-8.876 8.819h-263.8816c-4.88121 0-8.87639-3.9644-8.87639-8.819v-63c0-4.85461 3.96896-8.81895 8.87639-8.81895zm0-1.68105h-263.8816c-5.81971 0-10.5594 4.73416-10.5594 10.5v63c0 5.7868 4.73969 10.5 10.5594 10.5h263.8816c5.814 0 10.559-4.7132 10.559-10.5v-63c0-5.76584-4.745-10.5-10.559-10.5z" fill="#a6a6a6" fill-rule="evenodd"/><path d="m150.139 27.7868c-1.903 0-3.508-.6651-4.777-1.9743-1.258-1.2726-1.96-3.0269-1.929-4.8179 0-1.9115.65-3.5297 1.929-4.8128 1.264-1.3092 2.868-1.9743 4.772-1.9743 1.882 0 3.486.6651 4.776 1.9743 1.279 1.325 1.929 2.9432 1.929 4.8128-.021 1.9167-.671 3.5349-1.929 4.8127-1.264 1.3197-2.868 1.9795-4.771 1.9795zm-56.6297 0c-1.8613 0-3.4761-.6546-4.7973-1.9481-1.3108-1.2883-1.9766-2.917-1.9766-4.8389 0-1.922.6658-3.5506 1.9766-4.8389 1.295-1.2935 2.9098-1.9481 4.7973-1.9481.9228 0 1.8193.1832 2.6792.5551.8441.3613 1.5309.8536 2.0395 1.4558l.1258.1519-1.4208 1.393-.1468-.1728c-.8022-.9531-1.877-1.4192-3.2979-1.4192-1.2688 0-2.3751.4504-3.2873 1.3406-.9176.8956-1.3842 2.0686-1.3842 3.4878s.4666 2.5923 1.3842 3.4878c.9122.8903 2.0185 1.3407 3.2873 1.3407 1.3527 0 2.4904-.4504 3.3765-1.3407.5243-.5237.8494-1.2569.9647-2.1838h-4.5561v-1.9586h6.5117l.0263.1781c.0471.3299.0943.6703.0943.9845 0 1.8067-.5452 3.2678-1.6253 4.3466-1.2269 1.2778-2.8312 1.9272-4.7711 1.9272zm75.2947-.2775h-2.008l-6.15-9.8297.052 1.7701v8.0543h-2.008v-13.0137h2.291l.063.0995 5.783 9.2589-.052-1.7649v-7.5935h2.029zm-33.755 0h-2.034v-11.0604h-3.528v-1.9586h9.086v1.9586h-3.529v11.0604zm-7.219 0h-2.029v-13.019h2.029zm-11.404 0h-2.029v-11.0604h-3.528v-1.9586h9.086v1.9586h-3.529zm-6.842-.021h-7.78v-12.998h7.78v1.9586h-5.746v3.5716h5.185v1.9376h-5.185v3.5716h5.746zm37.267-3.0217c.907.906 2.009 1.3616 3.288 1.3616 1.316 0 2.391-.4451 3.287-1.3616.891-.8903 1.342-2.0581 1.342-3.4668s-.451-2.5818-1.337-3.4668c-.907-.906-2.013-1.3616-3.287-1.3616-1.316 0-2.391.4451-3.282 1.3616-.891.8902-1.342 2.0581-1.342 3.4668s.445 2.5818 1.331 3.4668z" fill="#fff"/><g clip-rule="evenodd" fill-rule="evenodd"><path d="m143.245 45.6868c-4.955 0-8.971 3.7548-8.971 8.9341 0 5.1322 4.042 8.9342 8.971 8.9342 4.954 0 8.971-3.7811 8.971-8.9342 0-5.1793-4.017-8.9341-8.971-8.9341zm0 14.3281c-2.711 0-5.044-2.2414-5.044-5.4149 0-3.2207 2.338-5.415 5.044-5.415 2.71 0 5.043 2.1943 5.043 5.415.006 3.1945-2.333 5.4149-5.043 5.4149zm-19.573-14.3281c-4.954 0-8.97 3.7548-8.97 8.9341 0 5.1322 4.042 8.9342 8.97 8.9342 4.955 0 8.971-3.7811 8.971-8.9342 0-5.1793-4.021-8.9341-8.971-8.9341zm0 14.3281c-2.71 0-5.043-2.2414-5.043-5.4149 0-3.2207 2.338-5.415 5.043-5.415 2.711 0 5.044 2.1943 5.044 5.415 0 3.1945-2.333 5.4149-5.044 5.4149zm-23.289-11.5997v3.781h9.086c-.278 2.121-.98 3.6868-2.055 4.7604-1.332 1.3302-3.387 2.7755-7.01 2.7755-5.5839 0-9.9513-4.5037-9.9513-10.081s4.3674-10.081 9.9513-10.081c3.015 0 5.212 1.1887 6.842 2.7074l2.685-2.6813c-2.265-2.168-5.28-3.8281-9.506-3.8281-7.6601 0-14.0881 6.2319-14.0881 13.8621 0 7.6511 6.4227 13.862 14.0881 13.862 4.137 0 7.241-1.3511 9.694-3.8962 2.501-2.498 3.293-6.0225 3.293-8.8661 0-.885-.068-1.681-.21-2.3566h-12.824c.005-.0052.005.0419.005.0419zm95.26 2.9431c-.749-2.0057-3.014-5.6925-7.66-5.6925-4.603 0-8.43 3.6187-8.43 8.9342 0 5.0169 3.785 8.9341 8.876 8.9341 4.09 0 6.47-2.498 7.45-3.9643l-3.035-2.0319c-1.007 1.4925-2.407 2.4718-4.394 2.4718-2.008 0-3.413-.9112-4.346-2.7075l11.959-4.9489c0 .0053-.42-.995-.42-.995zm-12.195 2.9851c-.094-3.4512 2.685-5.2055 4.672-5.2055 1.567 0 2.873.7698 3.319 1.8905zm-9.715 8.6566h3.927v-26.2474h-3.927zm-6.449-15.3284h-.142c-.886-1.0527-2.569-2.0058-4.718-2.0058-4.462 0-8.573 3.9225-8.573 8.9604 0 5.0169 4.09 8.8922 8.573 8.8922 2.123 0 3.832-.9583 4.718-2.0319h.142v1.2831c0 3.4092-1.825 5.2473-4.766 5.2473-2.406 0-3.901-1.7281-4.509-3.1735l-3.413 1.4244c.98 2.3566 3.597 5.2736 7.917 5.2736 4.603 0 8.504-2.7075 8.504-9.3112v-16.0302h-3.712v1.4716zm-4.509 12.3433c-2.711 0-4.976-2.2623-4.976-5.3887 0-3.1527 2.265-5.4359 4.976-5.4359 2.684 0 4.766 2.3094 4.766 5.4359.026 3.1264-2.076 5.3887-4.766 5.3887zm51.256-23.2623h-9.39v26.2474h3.927v-9.9397h5.468c4.346 0 8.62-3.1473 8.62-8.1434 0-4.996-4.258-8.1643-8.625-8.1643zm.115 12.6419h-5.584v-9.0075h5.584c2.941 0 4.604 2.4247 4.604 4.5038 0 2.0581-1.684 4.5037-4.604 4.5037zm24.249-3.7549c-2.852 0-5.793 1.2621-7.01 4.0115l3.482 1.4454c.749-1.4454 2.123-1.9377 3.575-1.9377 2.035 0 4.09 1.215 4.137 3.3831v.2775c-.703-.398-2.244-1.0055-4.089-1.0055-3.76 0-7.571 2.0529-7.571 5.902 0 3.5245 3.082 5.7868 6.517 5.7868 2.637 0 4.089-1.1888 4.996-2.5661h.142v2.032h3.785v-10.0549c0-4.6818-3.481-7.2741-7.964-7.2741zm-.493 14.3753c-1.284 0-3.083-.6284-3.083-2.2414 0-2.0319 2.244-2.8017 4.158-2.8017 1.73 0 2.548.3718 3.576.885-.283 2.3566-2.276 4.1372-4.651 4.1581zm22.267-13.8149-4.509 11.385h-.141l-4.672-11.385h-4.226l7.01 15.9149-3.995 8.8452h4.09l10.785-24.7601zm-35.348 16.8h3.927v-26.2474h-3.927z" fill="#fff"/><path d="m21.9365 15.8206c-.6082.6546-.9594 1.6549-.9594 2.9641v46.4356c0 1.3093.3512 2.3095.9804 2.938l.1625.1413 26.0473-26.0169v-.5813l-26.0682-26.0222z" fill="url(#a)"/><path d="m56.8342 50.9811-8.6877-8.6775v-.6075l8.6877-8.6775.1888.1152 10.2763 5.8339c2.9414 1.6548 2.9414 4.3885 0 6.0643l-10.2763 5.8339z" fill="url(#b)"/><path d="m57.0228 50.8661-8.8764-8.8661-26.2099 26.1793c.9595 1.0264 2.5691 1.1416 4.3675.1414z" fill="url(#c)"/><path d="m57.0228 33.1336-30.7188-17.4284c-1.7984-1.0264-3.4132-.885-4.3675.1414l26.2099 26.1531z" fill="url(#d)"/><path d="m56.8343 50.6777-30.5093 17.3132c-1.704.9793-3.2245.9112-4.2049.0209l-.1626.1624.1626.1414c.9804.885 2.5009.9583 4.2049-.021l30.719-17.4283z" fill="#000" opacity=".2"/><path d="m67.2994 44.7284-10.4913 5.9492.1888.1885 10.2763-5.8339c1.4733-.8379 2.1968-1.9377 2.1968-3.0322-.0891 1.0055-.8389 1.9586-2.1706 2.7284z" fill="#000" opacity=".12"/><path d="m26.304 16.0093 40.9951 23.2624c1.3317.7488 2.0815 1.7281 2.1968 2.7284 0-1.0945-.7235-2.1943-2.1968-3.0322l-40.9951-23.2623c-2.9414-1.6811-5.3269-.2776-5.3269 3.0793v.3037c0-3.3621 2.3855-4.7394 5.3269-3.0793z" fill="#fff" opacity=".25"/></g></svg>